<svg xmlns="http://www.w3.org/2000/svg" height="16" width="16" viewBox="0 0 2048 2048">
  <path d="M2048 384v1408H0V384h2048zm-395 1280l-85-256H480l-85 256h1258zm267-1152H128v1152h132l128-384h1272l128 384h132V512zM512 1152q-27 0-50-10t-40-27-28-41-10-50q0-27 10-50t27-40 41-28 50-10q27 0 50 10t40 27 28 41 10 50q0 27-10 50t-27 40-41 28-50 10zm1024 0q-27 0-50-10t-40-27-28-41-10-50q0-27 10-50t27-40 41-28 50-10q27 0 50 10t40 27 28 41 10 50q0 27-10 50t-27 40-41 28-50 10zm-256 0H768V896h512v256z" />
</svg>