<svg xmlns="http://www.w3.org/2000/svg" height="16" width="16" viewBox="0 0 2048 2048">
  <path d="M128 321q0 33 28 58t68 44 80 30 65 18q-11 32-14 63t-3 66q-59-14-116-35t-108-54v962q0 30 26 54t63 43 74 31 61 18v67q0 33 2 66-51-12-112-33t-116-54-90-81-36-111V321q0-66 39-115t101-85 140-59 156-37T585 6t119-6q61 0 128 5t135 18 132 30 120 43h-3q-67 0-133 6t-133 17q-8 1-22 4t-31 6-30 6-20 3q-34 0-70-5t-73-5q-35 0-81 3t-97 10-105 17-102 25-90 34-67 43q-13 11-23 27t-11 34zm1792 1407q0 66-39 115t-101 85-141 59-156 36-149 19-118 6q-48 0-118-5t-149-19-156-37-140-58-102-85-39-116V576q0-66 39-115t101-84 141-59 156-37 149-19 118-6q47 0 118 5t149 19 156 37 140 58 102 85 39 116v1152zm-128 0V766q-58 37-130 62t-148 40-153 21-145 7q-68 0-144-6t-153-22-149-40-130-62v962q0 37 35 65t91 50 122 36 132 24 117 13 79 4q20 0 55-2t79-7 95-12 99-19 94-25 79-33 54-42 21-52zm2-1160q0-33-36-60t-92-47-123-35-132-24-117-13-78-5q-48 0-94 3t-94 11q-20 3-56 9t-80 17-88 24-81 34-60 42-23 52q0 37 35 65t90 50 122 36 131 24 117 13 81 4q36 0 87-3t110-11 116-21 111-32 91-47 58-63q5-10 5-23z" />
</svg>