<svg xmlns="http://www.w3.org/2000/svg" viewBox="0 0 16 16">
  <g id="canvas" opacity="0" fill="none">
    <path d="M16,16H0V0H16Z" opacity="0" fill="none" />
  </g>
  <g id="level-1">
    <path d="M14.736,8.608,8.652,14.692a.9.9,0,0,1-1.275,0L1.264,8.58a.9.9,0,0,1,0-1.276L5.455,3.113,7.043,4.7a1.073,1.073,0,0,0,.582,1.407V9.951a1.073,1.073,0,1,0,1.166.234,1.1,1.1,0,0,0-.284-.2V6.174L9.954,7.621a1.075,1.075,0,1,0,.643-.6L9.045,5.465A1.07,1.07,0,0,0,7.689,4.1L6.079,2.49,7.348,1.22a.9.9,0,0,1,1.275,0l6.113,6.113A.9.9,0,0,1,14.736,8.608Z" fill="#f05133" />
  </g>
</svg>