<svg xmlns="http://www.w3.org/2000/svg" viewBox="0 0 16 16">
  <g id="canvas">
    <path d="M16,16H0V0H16Z" fill="none" opacity="0" />
  </g>
  <g id="level-1">
    <path d="M13.5,3.563v8.9a1.4,1.4,0,0,1-.072.446,1.35,1.35,0,0,1-.207.394,1.538,1.538,0,0,1-.323.316,1.3,1.3,0,0,1-.408.2l-3.76,1.12a1.427,1.427,0,0,1-.214.051A1.671,1.671,0,0,1,8.294,15a1.52,1.52,0,0,1-.759-.194L4.928,13.32a.87.87,0,0,1-.444-.754.9.9,0,0,1,.064-.344,1.014,1.014,0,0,1,.179-.288.658.658,0,0,1,.28-.186,1.319,1.319,0,0,1,.35-.072h3.56v-7.9L5.98,4.855a.951.951,0,0,0-.293.166,1.36,1.36,0,0,0-.229.244.983.983,0,0,0-.151.308,1.467,1.467,0,0,0-.057.338V10a1.094,1.094,0,0,1-.158.567,1.13,1.13,0,0,1-.429.417l-1.125.61a.728.728,0,0,1-.157.057.715.715,0,0,1-.673-.179.717.717,0,0,1-.208-.51V4.884a1.361,1.361,0,0,1,.193-.711,1.48,1.48,0,0,1,.523-.517L7.52,1.2A1.517,1.517,0,0,1,8.286,1a1.69,1.69,0,0,1,.459.065l3.76,1.148a1.309,1.309,0,0,1,.4.194,1.431,1.431,0,0,1,.315.316,1.5,1.5,0,0,1,.207.4A1.352,1.352,0,0,1,13.5,3.563Zm-.917,8.9V3.563a.469.469,0,0,0-.093-.294.5.5,0,0,0-.258-.173q-.6-.186-1.2-.359c-.4-.114-.8-.244-1.2-.387v.122a.244.244,0,0,1,.007.072V13.557a.256.256,0,0,1-.021.1l2.42-.725a.478.478,0,0,0,.251-.179A.525.525,0,0,0,12.583,12.458Z" fill="#ce2c00" />
  </g>
</svg>