<svg xmlns="http://www.w3.org/2000/svg" viewBox="0 0 16 16">
  <g id="canvas">
    <path d="M16,16H0V0H16Z" fill="none" opacity="0" />
  </g>
  <g id="level-1">
    <path d="M15.336,1A.666.666,0,0,1,16,1.664V14.336a.666.666,0,0,1-.664.664H4.664A.666.666,0,0,1,4,14.336V12H.664a.64.64,0,0,1-.469-.2A.642.642,0,0,1,0,11.336V4.664A.642.642,0,0,1,.2,4.2.64.64,0,0,1,.664,4H4V1.664A.666.666,0,0,1,4.664,1ZM4.023,7.469l.961,3.156H6.078l1.047-5.25h-1.1L5.4,8.477l-.882-3h-.93L2.648,8.492,2.023,5.375H.875l1.047,5.25H3.016ZM15,4V2H5V4Zm0,10V12H5v2Zm0-6.5V5H8V7.5ZM15,11V8.5H8V11Z" fill="#2b579a" />
  </g>
</svg>