<svg xmlns="http://www.w3.org/2000/svg" viewBox="0 0 16 16">
  <g id="canvas">
    <path d="M16,16H0V0H16Z" fill="none" opacity="0" />
  </g>
  <g id="level-1">
    <path d="M15.953,7.836a.373.373,0,0,0-.118-.125h-.007L15,7.234V1.7a.693.693,0,0,0-.7-.7H5.7a.693.693,0,0,0-.7.7V4H.664A.642.642,0,0,0,.2,4.2.642.642,0,0,0,0,4.664v6.672a.642.642,0,0,0,.2.469.642.642,0,0,0,.469.2H4v2.25a.748.748,0,0,0,.75.75h10.5a.748.748,0,0,0,.75-.75V8A.317.317,0,0,0,15.953,7.836ZM12,2.5h2v2H12Zm0,3h2v2H12Zm0,3h2.031L12,9.719Zm-3.5-6H11v2H8.5Zm0,3H11v2H8.5Zm0,3H11v1.82l-.891.532-1.609-1ZM6,2.5H7.5V4.031a.463.463,0,0,0-.083-.023A.393.393,0,0,0,7.335,4H6ZM3.984,10.656a2.622,2.622,0,0,1-1.039-.2,2.264,2.264,0,0,1-.781-.539,2.356,2.356,0,0,1-.492-.82A3.062,3.062,0,0,1,1.5,8.062a3.437,3.437,0,0,1,.167-1.093,2.438,2.438,0,0,1,.5-.864,2.263,2.263,0,0,1,.8-.563,2.849,2.849,0,0,1,1.093-.2,2.567,2.567,0,0,1,1.032.2,2.192,2.192,0,0,1,.765.552,2.42,2.42,0,0,1,.476.828A3.161,3.161,0,0,1,6.5,7.953a3.32,3.32,0,0,1-.167,1.07,2.525,2.525,0,0,1-.489.856,2.264,2.264,0,0,1-.789.57A2.627,2.627,0,0,1,3.984,10.656ZM5,14V12H7.335A.668.668,0,0,0,8,11.336v-.617L13.257,14Zm10-.086-3.938-2.469L15,9.086ZM5.18,8.605a1.574,1.574,0,0,1-.219.5,1.058,1.058,0,0,1-.391.347,1.2,1.2,0,0,1-.578.129,1.106,1.106,0,0,1-.562-.136,1.156,1.156,0,0,1-.383-.359,1.642,1.642,0,0,1-.219-.505,2.329,2.329,0,0,1-.07-.57,2.414,2.414,0,0,1,.07-.582,1.552,1.552,0,0,1,.223-.509,1.121,1.121,0,0,1,.972-.5,1.118,1.118,0,0,1,.579.14,1.137,1.137,0,0,1,.378.368,1.544,1.544,0,0,1,.207.512,2.625,2.625,0,0,1,.063.581A2.344,2.344,0,0,1,5.18,8.605Z" fill="#0072c6" />
  </g>
</svg>