<svg xmlns="http://www.w3.org/2000/svg" height="16" width="16" viewBox="0 0 16 16">
  <g id="canvas">
    <path d="M16,16H0V0H16Z" fill="none" opacity="0" />
  </g>
  <g id="level-1">
    <path d="M4.484,6.551a.624.624,0,0,1,.227.558.491.491,0,0,1-.082.293.632.632,0,0,1-.207.184.909.909,0,0,1-.281.1,1.753,1.753,0,0,1-.3.027H3.125V6.4h.75A1.068,1.068,0,0,1,4.484,6.551ZM16,10.664v3.672a.666.666,0,0,1-.664.664H6.164a.666.666,0,0,1-.664-.664V12H.664a.642.642,0,0,1-.469-.2A.64.64,0,0,1,0,11.336V4.664A.64.64,0,0,1,.2,4.2.642.642,0,0,1,.664,4H2V1.664A.666.666,0,0,1,2.664,1H9.836a.666.666,0,0,1,.664.664V5.5h1.836A.666.666,0,0,1,13,6.164V10h2.336a.666.666,0,0,1,.664.664ZM8,6.5V10h4V6.5Zm-2.008.57a1.792,1.792,0,0,0-.153-.777,1.381,1.381,0,0,0-.417-.527,1.724,1.724,0,0,0-.625-.3,3.068,3.068,0,0,0-.781-.094H1.9v5.242H3.125V8.789h.828A2.5,2.5,0,0,0,4.7,8.676a2.189,2.189,0,0,0,.653-.328,1.656,1.656,0,0,0,.465-.536A1.527,1.527,0,0,0,5.992,7.07ZM7.336,4A.666.666,0,0,1,8,4.664V5.5H9.5V2H3V4ZM15,11H8v.336A.666.666,0,0,1,7.336,12H6.5v2H15Z" fill="#31752f" />
  </g>
</svg>