<svg xmlns="http://www.w3.org/2000/svg" viewBox="0 0 16 16">
  <g id="canvas">
    <path d="M16,0V16H0V0Z" fill="none" opacity="0" />
  </g>
  <g id="level-1">
    <path d="M14.511,9.312H5.562a2.4,2.4,0,0,0,.586,1.645,2.682,2.682,0,0,0,.643.547,3.866,3.866,0,0,0,.784.379,4.827,4.827,0,0,0,.864.223,5.542,5.542,0,0,0,.886.072,5.885,5.885,0,0,0,1.045-.087,7.85,7.85,0,0,0,.963-.245,8.554,8.554,0,0,0,.923-.366c.306-.14.617-.293.936-.463v2.966a10.5,10.5,0,0,1-1.057.448,10.623,10.623,0,0,1-1.056.315,8.24,8.24,0,0,1-1.087.193A10.843,10.843,0,0,1,8.85,15a6.289,6.289,0,0,1-1.52-.182,5.97,5.97,0,0,1-1.374-.52,5.746,5.746,0,0,1-1.177-.827,5.22,5.22,0,0,1-.919-1.094,5.309,5.309,0,0,1-.595-1.325,5.457,5.457,0,0,1-.208-1.523,5.651,5.651,0,0,1,.237-1.645,5.235,5.235,0,0,1,.682-1.439A5.175,5.175,0,0,1,5.059,5.279,5.72,5.72,0,0,1,6.5,4.448,3.031,3.031,0,0,0,5.82,5.482a4.484,4.484,0,0,0-.313,1.2H10.49a5.011,5.011,0,0,0-.153-1.317,2.2,2.2,0,0,0-.5-.936,2.06,2.06,0,0,0-.882-.56A4.009,4.009,0,0,0,7.653,3.68a6.193,6.193,0,0,0-1.8.269,7.541,7.541,0,0,0-1.715.744,8.231,8.231,0,0,0-1.5,1.133A7.052,7.052,0,0,0,1.489,7.243a8.234,8.234,0,0,1,.378-1.7,7.3,7.3,0,0,1,.711-1.509A6.828,6.828,0,0,1,3.593,2.778a6.028,6.028,0,0,1,1.291-.962A6.507,6.507,0,0,1,6.409,1.2,7.794,7.794,0,0,1,8.15,1a6.148,6.148,0,0,1,1.072.1,7.628,7.628,0,0,1,1.043.267,6.135,6.135,0,0,1,3.139,2.4,6.408,6.408,0,0,1,.823,1.788,7.251,7.251,0,0,1,.284,2.027Z" fill="#0078d7" />
  </g>
</svg>