<svg xmlns="http://www.w3.org/2000/svg" viewBox="0 0 16 16">
  <g id="canvas">
    <path d="M16,16H0V0H16Z" fill="none" opacity="0" />
  </g>
  <g id="level-1">
    <path d="M11.433,4H7.568A3.569,3.569,0,0,0,4,7.568v3.865A3.568,3.568,0,0,0,7.568,15h3.865A3.567,3.567,0,0,0,15,11.433V7.568A3.568,3.568,0,0,0,11.433,4ZM7,8.447A1.447,1.447,0,1,1,8.447,7,1.447,1.447,0,0,1,7,8.447ZM11.484,13.8A2.316,2.316,0,1,1,13.8,11.484,2.316,2.316,0,0,1,11.484,13.8ZM3.665,2.5A1.165,1.165,0,1,1,2.5,1.335,1.165,1.165,0,0,1,3.665,2.5Z" fill="#004880" />
  </g>
</svg>