<svg xmlns="http://www.w3.org/2000/svg" height="16" width="16" viewBox="0 0 2048 2048">
  <path d="M2048 1024q0 52-4 108t-14 112-25 111-37 102q-17 36-39 73t-53 67-66 48-82 19h-352v-3q-17 3-32 3-32 0-60-10t-52-29-46-41-37-48H901q-17 26-37 49t-46 40-53 28-61 11H320q-45 0-81-18t-67-49-53-67-39-73q-22-48-37-102t-24-110-14-113-5-108q0-52 4-108t14-112 25-111 37-102q16-36 39-73t53-67 66-48 82-19h384q32 0 60 10t54 28 45 41 38 49h248q16-25 37-48t45-41 53-28 60-11h384q45 0 81 18t67 49 52 67 40 73q22 48 37 102t24 110 14 113 5 108zM320 1536q21 0 40-14t35-35 28-43 20-39q19-42 32-89t21-97 12-100 4-95q0-45-3-95t-12-99-22-97-32-90q-7-16-19-38t-29-43-35-35-40-15q-21 0-40 14t-35 35-28 43-20 39q-19 42-32 89t-21 97-12 100-4 95q0 45 3 95t12 99 22 97 32 90q7 16 19 38t29 43 35 35 40 15zm576-512q0-45-3-95t-12-99-22-97-32-90q-7-16-19-38t-29-43-35-35-40-15H517q34 53 58 116t38 130 20 136 7 130q0 62-6 130t-21 135-38 131-58 116h187q21 0 40-14t35-35 28-43 20-39q19-42 32-89t21-97 12-100 4-95zm448 512q21 0 40-14t35-35 28-43 20-39q19-42 32-89t21-97 12-100 4-95q0-45-3-95t-12-99-22-97-32-90q-7-16-19-38t-29-43-35-35-40-15q-20 0-38 14t-34 34-28 43-21 37H963q32 91 46 189t15 195q0 97-14 195t-47 189h260q8 15 20 37t28 42 34 35 39 14zm576-512q0-45-3-95t-12-99-22-97-32-90q-7-16-19-38t-29-43-35-35-40-15h-187q34 53 58 116t38 130 20 136 7 130q0 62-6 130t-21 135-38 131-58 116h187q21 0 40-14t35-35 28-43 20-39q19-42 32-89t21-97 12-100 4-95z" />
</svg>