<svg xmlns="http://www.w3.org/2000/svg" height="16" width="16" viewBox="0 0 2048 2048">
  <path d="M64 1791V263L1216 56v1936L64 1791zm328-922q0 57 19 95t47 66 62 47 61 39 48 39 19 51q0 19-7 31t-19 20-27 10-31 3q-47 0-85-22t-71-55l-14 6v160l4 7q40 29 89 40t99 11q53 0 96-14t74-42 48-69 17-97q0-59-20-98t-50-68-64-48-65-38-50-40-20-51q0-20 8-33t21-22 29-11 34-4q36 0 71 11t63 35l13-7V662l-5-7q-24-11-57-16t-59-6q-25 0-49 1t-48 7q-85 19-133 80t-48 148zm1492-34q35 5 65 21t52 42 34 58 13 68q0 36-12 68t-35 57-52 42-65 22q-40 98-114 173t-174 114q4 16 4 36 0 40-15 75t-41 61-61 41-75 15q-35 0-68-13t-60-37v-284q26-24 59-37t69-13q38 0 73 14t62 42q75-27 133-80t93-126q-48-24-76-70t-29-100q0-54 28-100t77-70q-34-72-92-125t-134-81q-26 27-61 41t-74 15q-35 0-68-13t-60-37V370q26-24 59-37t69-13q40 0 75 15t61 41 41 61 15 75q0 20-4 36 99 39 173 114t115 173z" />
</svg>