<svg xmlns="http://www.w3.org/2000/svg" height="16" width="16" viewBox="0 0 2048 2048">
  <path d="M2048 635v379q-28-35-60-67t-68-59V640q0-26-10-49t-27-41-41-28-50-10h-748l-128 85q-66 43-142 43H128v1024q0 27 10 50t27 41 40 27 51 10h553q17 34 36 66t43 62H251q-50 0-95-20t-80-55-55-80-21-96V379q0-50 20-95t55-80 80-55 96-21h485q60 0 115 27t90 75l115 154h741q50 0 95 20t80 55 55 80 21 96zM932 432l-94-125q-18-24-45-37t-57-14H256q-27 0-50 10t-40 27-28 41-10 50v128h646q22 0 43-8t40-20 38-26 37-26zm1116 1040q0 119-45 224t-124 183-183 123-224 46q-120 0-225-45t-183-123-123-183-45-225q0-119 45-224t124-183 183-123 224-46q79 0 152 20t138 58 117 91 90 117 58 137 21 153zm-256-320q0-26-19-45t-45-19q-19 0-31 7t-19 18-11 27-3 31q-47-25-92-38t-100-13q-36 0-73 7t-74 22-68 35-57 48q-9 10-14 20t-5 25q0 27 19 46t46 19q17 0 36-14t46-33 60-32 82-15q35 0 65 7t61 25h-26q-18 0-35 1t-32 8-22 20-9 35q0 26 19 45t45 19h192q26 0 45-19t19-45v-192zm-29 514q0-26-19-45t-45-19q-20 0-39 14t-44 33-59 32-83 15q-35 0-65-7t-61-25h26q17 0 34-1t32-8 23-20 9-35q0-26-19-45t-45-19h-192q-26 0-45 19t-19 45v192q0 26 19 45t45 19q19 0 31-7t19-18 11-27 3-31q47 25 92 38t100 13q36 0 74-7t73-22 68-35 57-48q19-20 19-46z" />
</svg>