<svg xmlns="http://www.w3.org/2000/svg" height="16" width="16" viewBox="0 0 2048 2048">
  <path d="M0 1024q0-141 36-272t104-244 160-207 207-161T752 37t272-37q141 0 272 36t244 104 207 160 161 207 103 245 37 272q0 141-36 272t-104 244-160 207-207 161-245 103-272 37q-141 0-272-36t-244-104-207-160-161-207-103-245-37-272zm1920 0q0-123-32-237t-90-214-141-182-181-140-214-91-238-32q-124 0-238 32t-214 90-181 140-140 181-91 214-32 239q0 124 32 238t90 214 140 181 181 140 214 91 239 32q124 0 238-32t214-90 181-140 140-181 91-214 32-239z" />
</svg>