<svg xmlns="http://www.w3.org/2000/svg" height="16" width="16" viewBox="0 0 16 16">
  <title>location</title>
  <path d="M6.586 7.656a2 2 0 0 1-.329-.456 2 2 0 0 0 .329.456zm1.414-7.393a6 6 0 0 1 6 6 6 6 0 0 0-12 0 6 6 0 0 1 6-6zm1.743 6.937a2 2 0 0 1-.328.451 2 2 0 0 0 .328-.451zm-1.743-2.959a2 2 0 0 1 2 2 2 2 0 0 0-4 0 2 2 0 0 1 2-2zm.545 11.135c.342-.382.789-.889 1.2-1.385.6-.722 1.3-1.638 1.976-2.609-.672.971-1.38 1.887-1.976 2.609-.411.495-.858 1.003-1.2 1.385zm-6.51-8.766a7.418 7.418 0 0 0 .881 2.57c.189.361.409.725.633 1.088-.224-.368-.449-.728-.633-1.088a7.415 7.415 0 0 1-.881-2.57zm6.2 9.061a.492.492 0 0 1-.235.066.492.492 0 0 0 .233-.066zm-2.435-2.246c-.5-.625-1.026-1.325-1.545-2.077.523.752 1.051 1.452 1.545 2.077zm1.591 1.881l.24.267a.5.5 0 0 0 .369.164.5.5 0 0 1-.369-.164zm-5.356-8.696a7.415 7.415 0 0 0 .881 2.57c.189.361.409.725.633 1.088s.463.724.709 1.08c.52.752 1.042 1.452 1.542 2.077l.454.567c.382.463.8.94 1.134 1.314l.24.267a.476.476 0 0 0 .6.1.482.482 0 0 0 .136-.1l.176-.2c.342-.382.789-.89 1.2-1.386.6-.722 1.3-1.637 1.976-2.609a21.612 21.612 0 0 0 1.365-2.2 6.724 6.724 0 0 0 .919-2.916 6 6 0 0 0-12 0zm5.965-2.369a2 2 0 0 1 2 2 2 2 0 0 1-4 0 2 2 0 0 1 2-2z" />
  <path d="M0 0h16v16h-16z" fill="none" />
</svg>