<svg xmlns="http://www.w3.org/2000/svg" height="16" width="16" viewBox="0 0 2048 2048">
  <path d="M1728 512q40 0 75 15t61 41 41 61 15 75q0 40-5 96t-17 118-32 123-49 112-69 84-91 41l-29 234q-8 60-36 111t-70 88-97 59-115 22h-55q-27 0-54 1-55 0-109-3l-71 214q-7 20-24 32t-37 12q-26 0-45-19t-19-45q0-10 9-40t21-66 23-66 16-46q-74-21-142-58t-127-89-105-115-74-135q-5-13-5-25 0-26 19-45t45-19q20 0 35 10t24 29q25 51 52 95t68 85q79 80 182 122t215 43h158q36 0 68-12t59-35 42-54 22-67l32-261q-35 23-75 34t-82 11h-96q-63 0-121-19t-105-54-84-84-56-109q-135 18-267 41t-265 54l-127 758q-4 23-22 38t-41 15q-26 0-45-19t-19-45q0-7 1-11l113-679q-17-4-37-8t-37-12-28-21-12-37V768q0-24 13-38t34-23 42-13 41-8q9-144 70-269t161-218T718 53 992 0q120 0 231 37t203 104 161 162 106 209h35zM896 696q-162 23-321 53t-319 69v188q159-38 318-67t322-52V696zm-507-40q290-63 581-98t588-44q-34-88-91-159t-132-121-161-78-182-28q-114 0-216 40T592 279 458 446t-69 210zm1275 483q13-11 22-23t18-27q24-41 40-88t27-98 16-101 5-98q0-26-19-45t-45-19q-177 0-352 10t-352 30v216q0 53 20 99t55 82 81 55 100 20h96q47 0 78-20t56-44 44-44 46-20q24 0 37 9t19 25 7 33 1 35v13z" />
</svg>