<svg xmlns="http://www.w3.org/2000/svg" height="16" width="16" viewBox="0 0 16 16">
  <g id="canvas">
    <path d="M16,16H0V0H16Z" fill="none" opacity="0" />
  </g>
  <g id="level-1">
    <path d="M11.473,11.505h-3.2c-.9,0-1.783-2.533-2.518-4.553A4.055,4.055,0,0,1,7.718,4.5C8.535,4.5,9.968,11.505,11.473,11.505Z" fill="#212121" opacity="0.1" />
    <path d="M11.473,12.005h-3.2c-1.132,0-1.88-1.83-2.894-4.623l-.093-.259,0-.35A4.612,4.612,0,0,1,7.513,4.044L7.718,4c.671,0,1.016.878,1.8,3.042.425,1.171,1.419,3.912,1.955,3.963ZM6.293,6.96l.029.081c.425,1.171,1.42,3.913,1.955,3.964h1.862a20.563,20.563,0,0,1-1.56-3.622A19.045,19.045,0,0,0,7.654,5.1,3.664,3.664,0,0,0,6.293,6.96Z" fill="#212121" />
    <path d="M15.5,4.5c-1.029,3.1-1.968,7.005-4.027,7.005-.435,0-.864-.594-1.273-1.426A30.666,30.666,0,0,0,12.3,4.5h3.2Z" fill="#212121" opacity="0.1" />
    <path d="M11.473,12.005c-.782,0-1.331-.911-1.722-1.7l.021-.48a21.547,21.547,0,0,0,1.665-4.262c.131-.412.261-.82.392-1.215L12.309,4H15.5l.475.657c-.13.392-.259.8-.388,1.2C14.628,8.882,13.636,12.005,11.473,12.005Zm-.7-1.91c.463.871.7.91.705.91,1.43,0,2.349-2.894,3.16-5.446q.088-.281.178-.559H12.666q-.138.425-.275.86A24.57,24.57,0,0,1,10.769,10.1Z" fill="#212121" />
    <path d="M7.718,4.5c-2.634,1.189-2.2,5.812-4.027,7.005H.5C2.329,10.312,1.893,5.689,4.527,4.5Z" fill="#212121" opacity="0.1" />
    <path d="M3.691,12.005H.5l-.273-.919c.662-.432,1-1.561,1.362-2.755.5-1.657,1.064-3.534,2.733-4.287L4.527,4H7.718l.205.956C6.67,5.521,6.2,7.1,5.737,8.619c-.414,1.375-.8,2.673-1.773,3.305Zm-2.066-1h1.9a5.813,5.813,0,0,0,1.25-2.674A9.375,9.375,0,0,1,6.271,5H4.641c-1.185.6-1.647,2.134-2.1,3.619A10.576,10.576,0,0,1,1.625,11.005Z" fill="#212121" />
  </g>
</svg>