<svg xmlns="http://www.w3.org/2000/svg" height="16" width="16" viewBox="0 0 2048 2048">
  <path d="M2048 192v512q0 26-19 45t-45 19h-512q-26 0-45-19t-19-45q0-26 19-45t45-19h361q-55-120-140-215t-193-161-230-101-255-35q-111 0-218 29t-204 82-178 128-143 167q-39 59-67 125-7 16-12 33t-14 33q-11 20-23 31t-37 12q-26 0-45-19t-19-45q0-12 3-21 53-150 149-275t222-216T704 51t309-51q141 0 275 36t251 103 215 166 166 223V192q0-26 19-45t45-19q26 0 45 19t19 45zm-68 1152q0 17-13 50t-32 70-36 69-30 49q-71 106-164 192t-203 147-230 94-251 33q-138 0-268-33t-246-98-213-159-166-214v312q0 26-19 45t-45 19q-26 0-45-19t-19-45v-512q0-26 19-45t45-19h512q26 0 45 19t19 45q0 26-19 45t-45 19H201q55 120 141 215t192 161 230 101 255 35q111 0 218-28t203-82 179-128 143-168q39-59 67-125 7-16 12-33t14-33q11-20 23-31t37-12q27 0 46 18t19 46z" />
</svg>