<svg xmlns="http://www.w3.org/2000/svg" height="16" width="16" viewBox="0 0 2048 2048">
  <path d="M608 896q150 0 263 45t190 128 116 202 39 265v512H0v-512q0-147 38-265t115-201 191-129 264-45zm909-64q138 0 238 46t165 126 96 191 32 240v485h-512l-132-502q-17-63-41-124t-57-117-76-106-98-87q37-41 81-70t94-47 103-26 107-9zm-13-128q-67 0-120-26t-90-71-58-102-20-121q0-63 20-121t57-102 91-70 120-27q67 0 120 26t90 71 58 102 20 121q0 63-20 121t-57 102-91 70-120 27zm-896 64q-80 0-146-31t-114-83-74-123-26-147q0-77 26-147t73-122 114-84T608 0q80 0 146 31t114 83 74 123 26 147q0 77-26 147t-73 122-114 84-147 31z" />
</svg>