<svg xmlns="http://www.w3.org/2000/svg" width="16" height="16" viewBox="0 0 16 16">
  <title>Printer</title>
  <path d="M0 0h16v16h-16z" fill="none" />
  <path d="M12 .75a.75.75 0 0 0-.75-.75h-6.5a.75.75 0 0 0-.75.75v3.25h8zm2.5 5.25h-13a1.5 1.5 0 0 0-1.5 1.5v5.75a.75.75 0 0 0 .75.75h1.25v-1.25a.75.75 0 0 1 .75-.75h10.5a.75.75 0 0 1 .75.75v1.25h1.25a.75.75 0 0 0 .75-.75v-5.75a1.5 1.5 0 0 0-1.5-1.5zm-10.793 3.707a1 1 0 1 1 .293-.707 1 1 0 0 1-.293.707zm7.543 4.293h-6.5a.75.75 0 0 0-.75.75v.5a.75.75 0 0 0 .75.75h6.5a.75.75 0 0 0 .75-.75v-.5a.75.75 0 0 0-.75-.75z" />
</svg>