<svg xmlns="http://www.w3.org/2000/svg" height="16" width="16" viewBox="0 0 2048 2048">
  <path d="M1792 0v2048H128V0h1664zm-128 128H256v1792h1408V128zM960 960q-27 0-50-10t-40-27-28-41-10-50q0-27 10-50t27-40 41-28 50-10q27 0 50 10t40 27 28 41 10 50q0 27-10 50t-27 40-41 28-50 10zM448 384q-26 0-45-19t-19-45q0-26 19-45t45-19q26 0 45 19t19 45q0 26-19 45t-45 19zm1024 0q-26 0-45-19t-19-45q0-26 19-45t45-19q26 0 45 19t19 45q0 26-19 45t-45 19zm0 1280q26 0 45 19t19 45q0 26-19 45t-45 19q-26 0-45-19t-19-45q0-26 19-45t45-19zM448 1792q-26 0-45-19t-19-45v-288q0-17 9-31t23-24l182-108q-101-83-157-198t-57-247q0-119 45-224t124-183 183-123 224-46q119 0 224 45t183 124 123 183 46 224q0 75-18 145t-53 132-83 113-108 90-128 63-144 29l-211 356q-9 14-23 23t-32 9H448zm64-960q0 57 14 111t40 102 65 89 85 73l403-238q15-9 33-9 26 0 45 19t19 45q0 18-9 33l-120 202q71-21 130-62t101-98 66-124 24-143q0-93-35-174t-96-142-142-96-175-36q-93 0-174 35t-142 96-96 142-36 175zm0 832h188l270-458-458 270v188z" />
</svg>