<svg xmlns="http://www.w3.org/2000/svg" height="16" width="16" viewBox="0 0 16 16">
  <g id="canvas" opacity="0" fill="none">
    <path d="M16,16H0V0H16Z" opacity="0" fill="none" />
  </g>
  <g id="level-1">
    <path d="M6.5,5.5v10H.5V5.5a1,1,0,0,1,1-1h4A1,1,0,0,1,6.5,5.5Z" fill="#212121" opacity="0.1" />
    <path d="M5.5,4h-4A1.5,1.5,0,0,0,0,5.5v10l.5.5h6l.5-.5V5.5A1.5,1.5,0,0,0,5.5,4ZM6,15H1V5.5A.5.5,0,0,1,1.5,5h4a.5.5,0,0,1,.5.5Z" fill="#212121" />
    <g opacity="0.75">
      <path d="M5,7V8H2V7ZM2,12H5V11H2Zm0,2H5V13H2Z" fill="#212121" />
    </g>
    <path d="M14.5,3v8c0,.828-1.791,1.5-4,1.5A8.788,8.788,0,0,1,8,12.162V5.5A2.5,2.5,0,0,0,6.5,3.212V3c0-.828,1.791-1.5,4-1.5S14.5,2.172,14.5,3Z" fill="#0077a0" opacity="0.1" />
    <path d="M6,2.969v.082A2.5,2.5,0,0,1,7.834,4.628,9.234,9.234,0,0,0,10.5,5,7.913,7.913,0,0,0,14,4.3V11c0,.29-1.227,1-3.5,1A7.876,7.876,0,0,1,8,11.64v1.043A9.538,9.538,0,0,0,10.5,13c2.236,0,4.5-.687,4.5-2V2.969C15,.344,6,.344,6,2.969Zm8,.046C14,3.3,12.773,4,10.5,4S7,3.3,7,3.015v-.03C7,2.7,8.227,2,10.5,2s3.5.7,3.5.985Z" fill="#0077a0" />
  </g>
</svg>